# xmcd
#
# Track frame offsets:
# 196
# 16996
# 29737
# 43943
# 60498
# 74721
# 88154
# 102063
# 123832
# 136911
#
# Disc length: 2019 seconds
#
#
# Revision: 0
# Processed by: cddbd v1.4PL0 Copyright (c) Steve Scherf et al.
# Submitted via: FreeRIP 2.30 
#
DISCID=8b07e10a
DTITLE=Lee Greenwood - Ring On Her Finger, Time On Her Hands
DYEAR=1996
DGENRE=
TTITLE0=Ring On Her Finger, Time On Her Hands
TTITLE1=Touch And Go Crazy
TTITLE2=Dixie Road
TTITLE3=Somebody's Gonna Love You
TTITLE4=I.O.U.
TTITLE5=Hearts Aren't Made To Break (They're Made To Love)
TTITLE6=Amazing Grace
TTITLE7=How Great Thou Art
TTITLE8=Oh Holy Night
TTITLE9=God Bless The USA
EXTD=
EXTT0=
EXTT1=
EXTT2=
EXTT3=
EXTT4=
EXTT5=
EXTT6=
EXTT7=
EXTT8=
EXTT9=
PLAYORDER=
